<svg xmlns="http://www.w3.org/2000/svg" viewBox="0 0 1440 665"><g id="Layer_2" data-name="Layer 2"><g id="Layer_1-2" data-name="Layer 1"><polygon points="1440 602 1395 620 1332 557 1278 602 1224 575 1152 611 1053 638 918 593 720 629 576 602 405 656 342 602 279 593 225 665 198 620 180 638 54 593 0 602 0 98 90 71 117 107 162 107 259.55 77.52 396 89 459 143 497.82 58.83 512.82 50.83 562.82 126.83 700.82 118.83 855 134 945 98 1008 99.95 1062 143 1089 80 1224 90 1332 0 1440 36 1440 602"/></g></g></svg>