<svg xmlns="http://www.w3.org/2000/svg" viewBox="0 0 4000 300"><g id="Layer_2" data-name="Layer 2"><g id="Layer_1-2" data-name="Layer 1"><polygon points="0 0 388.47 59.5 567.53 71.9 764.79 153.72 798.18 128.93 1004.55 230.58 1178.09 240.61 1240.4 232.13 1385.79 274.55 1406.56 257.58 1437.71 300 1500.02 232.13 1572.71 240.61 1645.41 291.52 1842.72 240.61 2008.87 266.06 2237.34 232.13 2393.11 274.55 2507.34 249.1 2590.42 215.16 2652.73 240.61 2715.04 198.19 2787.73 257.58 2839.65 240.61 3068.28 188.43 3086.49 138.84 3380.88 161.16 3514.42 94.22 3684.09 81.75 4000 0 0 0"/></g></g></svg>